<mxfile host="65bd71144e">
    <diagram id="FFFyzSRB_ki96bVUOr5I" name="FSM">
        <mxGraphModel dx="568" dy="397" grid="1" gridSize="10" guides="1" tooltips="1" connect="1" arrows="1" fold="1" page="1" pageScale="1" pageWidth="850" pageHeight="1100" math="0" shadow="0">
            <root>
                <mxCell id="0"/>
                <mxCell id="1" parent="0"/>
                <mxCell id="9" value="" style="edgeStyle=none;html=1;" parent="1" source="3" target="8" edge="1">
                    <mxGeometry relative="1" as="geometry"/>
                </mxCell>
                <mxCell id="34" value="CLK" style="edgeLabel;html=1;align=center;verticalAlign=middle;resizable=0;points=[];" parent="9" vertex="1" connectable="0">
                    <mxGeometry x="-0.45" relative="1" as="geometry">
                        <mxPoint x="25" y="18" as="offset"/>
                    </mxGeometry>
                </mxCell>
                <mxCell id="3" value="IDLE" style="ellipse;whiteSpace=wrap;html=1;aspect=fixed;" parent="1" vertex="1">
                    <mxGeometry x="385" y="270" width="80" height="80" as="geometry"/>
                </mxCell>
                <mxCell id="11" value="" style="edgeStyle=none;html=1;" parent="1" source="8" target="10" edge="1">
                    <mxGeometry relative="1" as="geometry"/>
                </mxCell>
                <mxCell id="35" value="CLK" style="edgeLabel;html=1;align=center;verticalAlign=middle;resizable=0;points=[];" parent="11" vertex="1" connectable="0">
                    <mxGeometry x="-0.3667" y="1" relative="1" as="geometry">
                        <mxPoint x="14" y="15" as="offset"/>
                    </mxGeometry>
                </mxCell>
                <mxCell id="8" value="LOAD" style="ellipse;whiteSpace=wrap;html=1;aspect=fixed;" parent="1" vertex="1">
                    <mxGeometry x="385" y="430" width="80" height="80" as="geometry"/>
                </mxCell>
                <mxCell id="32" style="edgeStyle=none;html=1;" parent="1" source="10" target="16" edge="1">
                    <mxGeometry relative="1" as="geometry">
                        <mxPoint x="305" y="630" as="targetPoint"/>
                    </mxGeometry>
                </mxCell>
                <mxCell id="36" value="CLK" style="edgeLabel;html=1;align=center;verticalAlign=middle;resizable=0;points=[];" parent="32" vertex="1" connectable="0">
                    <mxGeometry x="-0.3583" y="-1" relative="1" as="geometry">
                        <mxPoint x="-9" y="21" as="offset"/>
                    </mxGeometry>
                </mxCell>
                <mxCell id="10" value="RUNNING" style="ellipse;whiteSpace=wrap;html=1;" parent="1" vertex="1">
                    <mxGeometry x="385" y="590" width="80" height="80" as="geometry"/>
                </mxCell>
                <mxCell id="18" style="edgeStyle=none;html=1;exitX=0.5;exitY=0;exitDx=0;exitDy=0;" parent="1" source="16" target="8" edge="1">
                    <mxGeometry relative="1" as="geometry">
                        <mxPoint x="380" y="490" as="targetPoint"/>
                        <Array as="points">
                            <mxPoint x="265" y="471"/>
                        </Array>
                    </mxGeometry>
                </mxCell>
                <mxCell id="19" value="NO" style="edgeLabel;html=1;align=center;verticalAlign=middle;resizable=0;points=[];" parent="18" vertex="1" connectable="0">
                    <mxGeometry x="-0.3717" y="1" relative="1" as="geometry">
                        <mxPoint x="16" y="-25" as="offset"/>
                    </mxGeometry>
                </mxCell>
                <mxCell id="28" value="" style="edgeStyle=none;html=1;" parent="1" source="16" target="27" edge="1">
                    <mxGeometry relative="1" as="geometry"/>
                </mxCell>
                <mxCell id="29" value="YES" style="edgeLabel;html=1;align=center;verticalAlign=middle;resizable=0;points=[];" parent="28" vertex="1" connectable="0">
                    <mxGeometry x="-0.3333" y="1" relative="1" as="geometry">
                        <mxPoint y="-11" as="offset"/>
                    </mxGeometry>
                </mxCell>
                <mxCell id="16" value="CHECK&lt;br&gt;All Done?" style="rhombus;whiteSpace=wrap;html=1;" parent="1" vertex="1">
                    <mxGeometry x="225" y="590" width="80" height="80" as="geometry"/>
                </mxCell>
                <mxCell id="30" style="edgeStyle=none;html=1;" parent="1" source="27" target="3" edge="1">
                    <mxGeometry relative="1" as="geometry">
                        <Array as="points">
                            <mxPoint x="105" y="310"/>
                        </Array>
                    </mxGeometry>
                </mxCell>
                <mxCell id="31" value="CLK+RST" style="edgeLabel;html=1;align=center;verticalAlign=middle;resizable=0;points=[];" parent="30" vertex="1" connectable="0">
                    <mxGeometry x="-0.269" y="3" relative="1" as="geometry">
                        <mxPoint x="38" y="-55" as="offset"/>
                    </mxGeometry>
                </mxCell>
                <mxCell id="27" value="RDY" style="ellipse;whiteSpace=wrap;html=1;" parent="1" vertex="1">
                    <mxGeometry x="65" y="590" width="80" height="80" as="geometry"/>
                </mxCell>
                <mxCell id="37" style="edgeStyle=none;html=1;exitX=0.5;exitY=0;exitDx=0;exitDy=0;entryX=1;entryY=0.5;entryDx=0;entryDy=0;" edge="1" parent="1" source="3" target="3">
                    <mxGeometry relative="1" as="geometry">
                        <Array as="points">
                            <mxPoint x="425" y="230"/>
                            <mxPoint x="500" y="230"/>
                            <mxPoint x="500" y="310"/>
                        </Array>
                    </mxGeometry>
                </mxCell>
                <mxCell id="38" value="CLK+DISABLE" style="edgeLabel;html=1;align=center;verticalAlign=middle;resizable=0;points=[];" vertex="1" connectable="0" parent="37">
                    <mxGeometry x="0.1053" y="1" relative="1" as="geometry">
                        <mxPoint x="-21" y="8" as="offset"/>
                    </mxGeometry>
                </mxCell>
            </root>
        </mxGraphModel>
    </diagram>
</mxfile>